#N canvas 848 573 968 600 12;
#X declare -path zexy -lib zexy;
#X obj 132 312 writesf~;
#X obj 235 228 list prepend open;
#X obj 236 253 list trim;
#X obj 132 38 tgl 15 0 empty empty empty 17 7 0 10 -262144 -1 -1 0
1;
#X msg 132 254 stop;
#X msg 181 252 start;
#X obj 34 65 inlet~;
#X text 151 35 <---- 1: rec 0: stop;
#X obj 76 6 inlet;
#X obj 610 172 print;
#X obj 132 59 sel 0 1024;
#X obj 461 39 declare -path zexy -lib zexy;
#X obj 690 289 time, f 20;
#X obj 549 304 date, f 14;
#X obj 557 381 cyclone/sprintf %d-%d-%d-%d-%d-%d.wav, f 44;
#X obj 180 90 t b b;
#X obj 238 141 symbol;
#X obj 321 92 r filename;
#X obj 240 185 cyclone/sprintf /home/patch/plantoidz-pi/recordings/%s.wav
;
#X connect 1 0 2 0;
#X connect 2 0 0 0;
#X connect 3 0 10 0;
#X connect 4 0 0 0;
#X connect 5 0 0 0;
#X connect 6 0 0 0;
#X connect 8 0 3 0;
#X connect 10 0 4 0;
#X connect 10 1 15 0;
#X connect 12 0 14 3;
#X connect 12 1 14 4;
#X connect 12 2 14 5;
#X connect 13 0 14 0;
#X connect 13 1 14 1;
#X connect 13 2 14 2;
#X connect 15 0 5 0;
#X connect 15 1 16 0;
#X connect 16 0 18 0;
#X connect 17 0 16 1;
#X connect 18 0 1 0;
